<?xml version="1.0" encoding="UTF-8"?>
<!DOCTYPE svg PUBLIC "-//W3C//DTD SVG 1.1//EN" "http://www.w3.org/Graphics/SVG/1.1/DTD/svg11.dtd">
<!-- Creator: CorelDRAW 2021 (64-Bit) -->
<svg xmlns="http://www.w3.org/2000/svg" xml:space="preserve" width="1.01877in" height="1.29549in" version="1.1" style="shape-rendering:geometricPrecision; text-rendering:geometricPrecision; image-rendering:optimizeQuality; fill-rule:evenodd; clip-rule:evenodd"
viewBox="0 0 44.62 56.74"
 xmlns:xlink="http://www.w3.org/1999/xlink"
 xmlns:xodm="http://www.corel.com/coreldraw/odm/2003">
 <defs>
  <style type="text/css">
   <![CDATA[
    .fil0 {fill:url(#id0);fill-rule:nonzero}
   ]]>
  </style>
  <linearGradient id="id0" gradientUnits="userSpaceOnUse" x1="25.48" y1="-25" x2="26.27" y2="95.82">
   <stop offset="0" style="stop-opacity:1; stop-color:#008EBA"/>
   <stop offset="0.431373" style="stop-opacity:1; stop-color:#6AD9E9"/>
   <stop offset="1" style="stop-opacity:1; stop-color:#0096C7"/>
  </linearGradient>
 </defs>
 <g id="Layer_x0020_1">
  <metadata id="CorelCorpID_0Corel-Layer"/>
  <path class="fil0" d="M41.47 10.65c-0.29,0.4 -0.58,0.71 -0.87,0.92 -0.29,0.22 -0.71,0.33 -1.25,0.33 -0.54,0 -1.12,-0.22 -1.76,-0.67 -0.63,-0.45 -1.45,-0.96 -2.43,-1.5 -0.98,-0.54 -2.16,-1.03 -3.55,-1.49 -1.4,-0.45 -3.12,-0.69 -5.15,-0.69 -2.68,0 -5.05,0.49 -7.12,1.45 -2.07,0.96 -3.79,2.34 -5.18,4.15 -0.22,0.28 -0.42,0.57 -0.62,0.87 -0.43,-0.25 -0.88,-0.48 -1.36,-0.68 -1.85,-0.81 -3.96,-1.21 -6.35,-1.21 -0.71,0 -1.39,0.04 -2.05,0.11 0.84,-1.53 1.82,-2.94 2.94,-4.22 2.19,-2.52 4.89,-4.49 8.12,-5.91 3.22,-1.41 6.92,-2.12 11.09,-2.12 3.84,0 7.25,0.63 10.22,1.88 2.97,1.25 5.6,3.01 7.88,5.29l-2.55 3.48zm-30.06 7.78c-0.14,0.42 -0.27,0.85 -0.4,1.29 -0.71,2.57 -1.07,5.45 -1.07,8.64 0,3.33 0.38,6.29 1.14,8.88 0.11,0.36 0.22,0.72 0.34,1.07 -0.55,0.47 -1.15,0.86 -1.81,1.17 -1.13,0.53 -2.4,0.8 -3.81,0.8 -1.35,0 -2.46,-0.17 -3.33,-0.49 -0.33,-0.12 -0.64,-0.25 -0.93,-0.38 -1.03,-3.27 -1.55,-6.94 -1.55,-11.03 0,-4.04 0.56,-7.78 1.67,-11.22 0.28,-0.11 0.59,-0.22 0.91,-0.33 0.8,-0.26 1.78,-0.39 2.95,-0.39 1.53,0 2.89,0.28 4.08,0.83 0.66,0.31 1.26,0.69 1.81,1.15zm2.21 24.41c0.22,0.32 0.44,0.63 0.67,0.93 1.38,1.76 3.06,3.1 5.04,4.02 1.97,0.92 4.19,1.4 6.65,1.4 2.36,0 4.29,-0.29 5.82,-0.85 1.52,-0.56 2.79,-1.18 3.8,-1.87 1.01,-0.69 1.85,-1.32 2.5,-1.88 0.65,-0.56 1.3,-0.83 1.96,-0.83 0.83,0 1.45,0.31 1.85,0.92l2.72 3.53c-2.39,2.95 -5.38,5.11 -8.97,6.49 -3.59,1.36 -7.37,2.05 -11.36,2.05 -3.44,0 -6.63,-0.63 -9.58,-1.9 -2.95,-1.27 -5.53,-3.12 -7.7,-5.53 -1.31,-1.45 -2.45,-3.11 -3.42,-4.97 1.04,0.18 2.1,0.27 3.19,0.27 1.97,0 3.8,-0.36 5.49,-1.09 0.47,-0.2 0.92,-0.43 1.36,-0.68z"/>
 </g>
</svg>
