<?xml version="1.0" encoding="UTF-8"?>
<!DOCTYPE svg PUBLIC "-//W3C//DTD SVG 1.1//EN" "http://www.w3.org/Graphics/SVG/1.1/DTD/svg11.dtd">
<!-- Creator: CorelDRAW 2021 (64-Bit) -->
<svg xmlns="http://www.w3.org/2000/svg" xml:space="preserve" width="1.92006in" height="1.92006in" version="1.1" style="shape-rendering:geometricPrecision; text-rendering:geometricPrecision; image-rendering:optimizeQuality; fill-rule:evenodd; clip-rule:evenodd"
viewBox="0 0 129.05 129.05"
 xmlns:xlink="http://www.w3.org/1999/xlink"
 xmlns:xodm="http://www.corel.com/coreldraw/odm/2003">
 <defs>
  <style type="text/css">
   <![CDATA[
    .fil0 {fill:#004266;fill-rule:nonzero}
    .fil1 {fill:url(#id0);fill-rule:nonzero}
   ]]>
  </style>
  <linearGradient id="id0" gradientUnits="userSpaceOnUse" x1="68.48" y1="-2.07" x2="69.46" y2="148.7">
   <stop offset="0" style="stop-opacity:1; stop-color:#008EBA"/>
   <stop offset="0.431373" style="stop-opacity:1; stop-color:#6AD9E9"/>
   <stop offset="1" style="stop-opacity:1; stop-color:#0096C7"/>
  </linearGradient>
 </defs>
 <g id="Layer_x0020_1">
  <metadata id="CorelCorpID_0Corel-Layer"/>
  <rect class="fil0" width="129.05" height="129.05" rx="48.97" ry="48.97"/>
  <path class="fil1" d="M88.43 42.42c-0.36,0.5 -0.72,0.88 -1.09,1.15 -0.36,0.27 -0.88,0.41 -1.56,0.41 -0.68,0 -1.4,-0.27 -2.19,-0.84 -0.79,-0.57 -1.81,-1.2 -3.03,-1.88 -1.22,-0.68 -2.69,-1.29 -4.43,-1.85 -1.74,-0.57 -3.89,-0.86 -6.42,-0.86 -3.35,0 -6.31,0.61 -8.89,1.81 -2.58,1.2 -4.72,2.92 -6.47,5.18 -0.27,0.35 -0.53,0.71 -0.78,1.09 -0.54,-0.31 -1.1,-0.59 -1.69,-0.85 -2.3,-1.01 -4.94,-1.51 -7.92,-1.51 -0.89,0 -1.74,0.05 -2.56,0.14 1.05,-1.91 2.27,-3.66 3.66,-5.26 2.74,-3.14 6.1,-5.61 10.13,-7.37 4.02,-1.76 8.64,-2.65 13.84,-2.65 4.79,0 9.04,0.79 12.75,2.35 3.71,1.56 6.99,3.75 9.83,6.6l-3.19 4.34zm-37.51 9.71c-0.18,0.52 -0.34,1.06 -0.49,1.61 -0.88,3.21 -1.33,6.8 -1.33,10.78 0,4.16 0.47,7.84 1.42,11.08 0.13,0.45 0.27,0.9 0.42,1.33 -0.68,0.59 -1.44,1.08 -2.26,1.46 -1.41,0.66 -2.99,1 -4.75,1 -1.68,0 -3.07,-0.21 -4.15,-0.61 -0.41,-0.15 -0.8,-0.31 -1.16,-0.47 -1.28,-4.08 -1.93,-8.66 -1.93,-13.77 0,-5.04 0.7,-9.7 2.09,-14 0.35,-0.14 0.73,-0.28 1.13,-0.41 1,-0.32 2.23,-0.49 3.68,-0.49 1.92,0 3.61,0.35 5.09,1.04 0.83,0.38 1.58,0.86 2.25,1.44zm2.76 30.46c0.27,0.4 0.55,0.79 0.84,1.16 1.72,2.19 3.82,3.87 6.29,5.02 2.46,1.15 5.22,1.74 8.3,1.74 2.94,0 5.36,-0.36 7.26,-1.06 1.9,-0.7 3.48,-1.47 4.75,-2.33 1.27,-0.86 2.31,-1.65 3.12,-2.35 0.81,-0.7 1.63,-1.04 2.44,-1.04 1.04,0 1.81,0.38 2.31,1.15l3.39 4.41c-2.98,3.69 -6.71,6.38 -11.19,8.09 -4.48,1.7 -9.2,2.55 -14.17,2.55 -4.3,0 -8.27,-0.79 -11.96,-2.37 -3.69,-1.58 -6.9,-3.89 -9.61,-6.9 -1.64,-1.81 -3.06,-3.88 -4.27,-6.2 1.29,0.22 2.62,0.33 3.97,0.33 2.46,0 4.74,-0.45 6.85,-1.36 0.59,-0.25 1.15,-0.54 1.7,-0.85z"/>
 </g>
</svg>
